{
  "source": "C:\\Users\\Peter\\Desktop\\stuff\\MIUN\\quantitative_research\\video_compression\\videos\\HEVC_CLASS_B\\BasketballDrive_1920x1080_50.y4m",
  "output": "C:\\Users\\Peter\\Desktop\\stuff\\MIUN\\quantitative_research\\video_compression\\compressed_videos\\HEVC_CLASS_B\\av1\\1.5\\BasketballDrive_1920x1080_50_av1.mkv",
  "codec": "av1",
  "ok": "Input #0, yuv4mpegpipe, from 'C:\\Users\\Peter\\Desktop\\stuff\\MIUN\\quantitative_research\\video_compression\\videos\\HEVC_CLASS_B\\BasketballDrive_1920x1080_50.y4m':\n  Duration: 00:00:10.00, start: 0.000000, bitrate: 1244162 kb/s\n  Stream #0:0: Video: rawvideo (I420 / 0x30323449), yuv420p(progressive), 1920x1080, 50 fps, 50 tbr, 50 tbn\n[out#0/matroska @ 000001c0f71d9c40] Codec AVOption b:a (set bitrate (in bits/s)) has not been used for any stream. The most likely reason is either wrong type (e.g. a video option with no video streams) or that it is a private option of some decoder which was not actually used for any stream.\nStream mapping:\n  Stream #0:0 -> #0:0 (rawvideo (native) -> av1 (libsvtav1))\nPress [q] to stop, [?] for help\nSvt[info]: -------------------------------------------\nSvt[info]: SVT [version]:\tSVT-AV1 Encoder Lib v3.1.0-19-g6ecfe8ec\nSvt[info]: SVT [build]  :\tGCC 15.2.0\t 64 bit\nSvt[info]: LIB Build date: Aug 17 2025 11:37:13\nSvt[info]: -------------------------------------------\n[libsvtav1 @ 000001c0f71dc100] Specified chroma sample location center is unsupported on the AV1 bit stream level. Usage of a container that allows passing this information - such as Matroska - is recommended.\nSvt[info]: Level of Parallelism: 5\nSvt[info]: Number of PPCS 93\nSvt[info]: [asm level on system : up to avx2]\nSvt[info]: [asm level selected : up to avx2]\nSvt[info]: -------------------------------------------\nSvt[info]: SVT [config]: main profile\ttier (auto)\tlevel (auto)\nSvt[info]: SVT [config]: width / height / fps numerator / fps denominator \t\t: 1920 / 1080 / 50 / 1\nSvt[info]: SVT [config]: bit-depth / color format \t\t\t\t\t: 8 / YUV420\nSvt[info]: SVT [config]: preset / tune / pred struct \t\t\t\t\t: 4 / PSNR / random access\nSvt[info]: SVT [config]: gop size / mini-gop size / key-frame type \t\t\t: 321 / 16 / key frame\nSvt[info]: SVT [config]: BRC mode / target bitrate (kbps)\t\t\t\t: VBR / 1500 \nSvt[info]: SVT [config]: AQ mode / Variance Boost \t\t\t\t\t: 2 / 0\nSvt[info]: SVT [config]: sharpness / luminance-based QP bias \t\t\t\t: 0 / 0\nSvt[info]: SVT [config]: QP scale compress strength \t\t\t\t\t: 0\nSvt[info]: -------------------------------------------\nOutput #0, matroska, to 'C:\\Users\\Peter\\Desktop\\stuff\\MIUN\\quantitative_research\\video_compression\\compressed_videos\\HEVC_CLASS_B\\av1\\1.5\\BasketballDrive_1920x1080_50_av1.mkv':\n  Metadata:\n    encoder         : Lavf62.3.100\n  Stream #0:0: Video: av1 (AV01 / 0x31305641), yuv420p(tv, progressive), 1920x1080, q=2-31, 1500 kb/s, 50 fps, 1k tbn\n    Metadata:\n      encoder         : Lavc62.11.100 libsvtav1\n    Side data:\n      cpb: bitrate max/min/avg: 0/0/1500000 buffer size: 1500000 vbv_delay: N/A\nframe=    0 fps=0.0 q=0.0 size=       0KiB time=N/A bitrate=N/A speed=N/A elapsed=0:00:00.52    \nframe=    0 fps=0.0 q=0.0 size=       0KiB time=N/A bitrate=N/A speed=N/A elapsed=0:00:01.32    \nframe=    0 fps=0.0 q=0.0 size=       0KiB time=N/A bitrate=N/A speed=N/A elapsed=0:00:02.10    \nframe=    0 fps=0.0 q=0.0 size=       0KiB time=N/A bitrate=N/A speed=N/A elapsed=0:00:02.67    \nframe=    0 fps=0.0 q=0.0 size=       0KiB time=N/A bitrate=N/A speed=N/A elapsed=0:00:03.20    \nframe=    0 fps=0.0 q=0.0 size=       0KiB time=N/A bitrate=N/A speed=N/A elapsed=0:00:03.71    \nframe=    0 fps=0.0 q=0.0 size=       0KiB time=N/A bitrate=N/A speed=N/A elapsed=0:00:04.26    \nframe=    0 fps=0.0 q=0.0 size=       0KiB time=N/A bitrate=N/A speed=N/A elapsed=0:00:04.79    \nframe=    0 fps=0.0 q=0.0 size=       0KiB time=N/A bitrate=N/A speed=N/A elapsed=0:00:05.35    \nframe=    0 fps=0.0 q=0.0 size=       0KiB time=N/A bitrate=N/A speed=N/A elapsed=0:00:05.94    \nframe=    0 fps=0.0 q=0.0 size=       0KiB time=N/A bitrate=N/A speed=N/A elapsed=0:00:06.59    \nframe=    0 fps=0.0 q=0.0 size=       0KiB time=N/A bitrate=N/A speed=N/A elapsed=0:00:07.99    \nframe=    0 fps=0.0 q=0.0 size=       0KiB time=N/A bitrate=N/A speed=N/A elapsed=0:00:09.26    \nframe=    1 fps=0.1 q=30.0 size=       1KiB time=N/A bitrate=N/A speed=N/A elapsed=0:00:10.12    \nframe=    1 fps=0.1 q=30.0 size=       1KiB time=00:00:00.00 bitrate=N/A speed=   0x elapsed=0:00:10.84    \nframe=    1 fps=0.1 q=30.0 size=       1KiB time=00:00:00.00 bitrate=N/A speed=   0x elapsed=0:00:11.54    \nframe=    1 fps=0.1 q=30.0 size=       1KiB time=00:00:00.00 bitrate=N/A speed=   0x elapsed=0:00:12.30    \nframe=    2 fps=0.2 q=56.0 size=       1KiB time=00:00:00.02 bitrate= 224.8kbits/s speed=0.00153x elapsed=0:00:13.08    \nframe=    4 fps=0.3 q=56.0 size=       1KiB time=00:00:00.06 bitrate=  74.9kbits/s speed=0.00434x elapsed=0:00:13.83    \nframe=    7 fps=0.5 q=53.0 size=       1KiB time=00:00:00.10 bitrate=  45.0kbits/s speed=0.00684x elapsed=0:00:14.61    \nframe=    8 fps=0.5 q=54.0 size=       1KiB time=00:00:00.14 bitrate=  32.1kbits/s speed=0.00911x elapsed=0:00:15.36    \nframe=   10 fps=0.6 q=53.0 size=       1KiB time=00:00:00.16 bitrate=  28.1kbits/s speed=0.00988x elapsed=0:00:16.18    \nframe=   11 fps=0.6 q=52.0 size=       1KiB time=00:00:00.20 bitrate=  22.5kbits/s speed=0.0117x elapsed=0:00:17.02    \nframe=   13 fps=0.7 q=50.0 size=       1KiB time=00:00:00.22 bitrate=  20.4kbits/s speed=0.0124x elapsed=0:00:17.81    \nframe=   15 fps=0.8 q=53.0 size=       1KiB time=00:00:00.28 bitrate=  16.1kbits/s speed=0.0149x elapsed=0:00:18.75    \nframe=   18 fps=0.9 q=51.0 size=       1KiB time=00:00:00.34 bitrate=  13.2kbits/s speed=0.0173x elapsed=0:00:19.70    \nframe=   20 fps=1.0 q=47.0 size=       1KiB time=00:00:00.38 bitrate=  11.8kbits/s speed=0.0184x elapsed=0:00:20.65    \nframe=   22 fps=1.0 q=48.0 size=       1KiB time=00:00:00.42 bitrate=  10.7kbits/s speed=0.0195x elapsed=0:00:21.50    \nframe=   24 fps=1.1 q=48.0 size=       1KiB time=00:00:00.44 bitrate=  10.2kbits/s speed=0.0195x elapsed=0:00:22.50    \nframe=   25 fps=1.1 q=49.0 size=       1KiB time=00:00:00.48 bitrate=   9.4kbits/s speed=0.0204x elapsed=0:00:23.47    \nframe=   26 fps=1.1 q=49.0 size=       1KiB time=00:00:00.50 bitrate=   9.0kbits/s speed=0.0208x elapsed=0:00:23.98    \nframe=   27 fps=1.1 q=53.0 size=       1KiB time=00:00:00.52 bitrate=   8.6kbits/s speed=0.0212x elapsed=0:00:24.51    \nframe=   29 fps=1.2 q=50.0 size=       1KiB time=00:00:00.56 bitrate=   8.0kbits/s speed=0.0224x elapsed=0:00:25.04    \nframe=   30 fps=1.2 q=49.0 size=       1KiB time=00:00:00.58 bitrate=   7.8kbits/s speed=0.0226x elapsed=0:00:25.66    \nframe=   31 fps=1.2 q=53.0 size=       1KiB time=00:00:00.60 bitrate=   7.5kbits/s speed=0.0229x elapsed=0:00:26.20    \nframe=   32 fps=1.2 q=49.0 size=       1KiB time=00:00:00.62 bitrate=   7.3kbits/s speed=0.0232x elapsed=0:00:26.75    \nframe=   33 fps=1.2 q=37.0 size=       1KiB time=00:00:00.64 bitrate=   7.0kbits/s speed=0.0235x elapsed=0:00:27.29    \nframe=   34 fps=1.2 q=49.0 size=       1KiB time=00:00:00.66 bitrate=   6.8kbits/s speed=0.0237x elapsed=0:00:27.82    \nframe=   35 fps=1.2 q=54.0 size=       1KiB time=00:00:00.68 bitrate=   6.6kbits/s speed=0.024x elapsed=0:00:28.35    \nframe=   37 fps=1.3 q=52.0 size=       1KiB time=00:00:00.70 bitrate=   6.4kbits/s speed=0.0242x elapsed=0:00:28.90    \nframe=   37 fps=1.3 q=52.0 size=       1KiB time=00:00:00.72 bitrate=   6.2kbits/s speed=0.0244x elapsed=0:00:29.48    \nframe=   38 fps=1.3 q=50.0 size=       1KiB time=00:00:00.74 bitrate=   6.1kbits/s speed=0.0247x elapsed=0:00:30.00    \nframe=   39 fps=1.3 q=54.0 size=       1KiB time=00:00:00.76 bitrate=   5.9kbits/s speed=0.0249x elapsed=0:00:30.53    \nframe=   39 fps=1.3 q=54.0 size=       1KiB time=00:00:00.76 bitrate=   5.9kbits/s speed=0.0244x elapsed=0:00:31.11    \nframe=   40 fps=1.3 q=51.0 size=       1KiB time=00:00:00.78 bitrate=   5.8kbits/s speed=0.0246x elapsed=0:00:31.65    \nframe=   41 fps=1.3 q=47.0 size=       1KiB time=00:00:00.80 bitrate=   5.6kbits/s speed=0.0248x elapsed=0:00:32.21    \nframe=   43 fps=1.3 q=53.0 size=       1KiB time=00:00:00.84 bitrate=   5.4kbits/s speed=0.0257x elapsed=0:00:32.74    \nframe=   43 fps=1.3 q=53.0 size=       1KiB time=00:00:00.84 bitrate=   5.4kbits/s speed=0.0253x elapsed=0:00:33.25    \nframe=   44 fps=1.3 q=50.0 size=       1KiB time=00:00:00.86 bitrate=   5.2kbits/s speed=0.0254x elapsed=0:00:33.81    \nframe=   44 fps=1.3 q=50.0 size=       1KiB time=00:00:00.86 bitrate=   5.2kbits/s speed=0.025x elapsed=0:00:34.39    \nframe=   46 fps=1.3 q=51.0 size=       1KiB time=00:00:00.90 bitrate=   5.0kbits/s speed=0.0257x elapsed=0:00:34.98    \nframe=   48 fps=1.4 q=52.0 size=       1KiB time=00:00:00.94 bitrate=   4.8kbits/s speed=0.0264x elapsed=0:00:35.54    \nframe=   49 fps=1.4 q=35.0 size=       1KiB time=00:00:00.96 bitrate=   4.7kbits/s speed=0.0266x elapsed=0:00:36.06    \nframe=   51 fps=1.4 q=53.0 size=       1KiB time=00:00:00.98 bitrate=   4.6kbits/s speed=0.0268x elapsed=0:00:36.58    \nframe=   51 fps=1.4 q=53.0 size=       1KiB time=00:00:01.00 bitrate=   4.5kbits/s speed=0.0269x elapsed=0:00:37.14    \nframe=   51 fps=1.4 q=53.0 size=       1KiB time=00:00:01.00 bitrate=   4.5kbits/s speed=0.0265x elapsed=0:00:37.73    \nframe=   52 fps=1.4 q=52.0 size=       1KiB time=00:00:01.02 bitrate=   4.4kbits/s speed=0.0267x elapsed=0:00:38.27    \nframe=   53 fps=1.4 q=51.0 size=       1KiB time=00:00:01.02 bitrate=   4.4kbits/s speed=0.0263x elapsed=0:00:38.82    \nframe=   54 fps=1.4 q=52.0 size=       1KiB time=00:00:01.06 bitrate=   4.2kbits/s speed=0.0269x elapsed=0:00:39.42    \nframe=   54 fps=1.4 q=52.0 size=       1KiB time=00:00:01.06 bitrate=   4.2kbits/s speed=0.0265x elapsed=0:00:39.98    \nframe=   54 fps=1.3 q=52.0 size=       1KiB time=00:00:01.06 bitrate=   4.2kbits/s speed=0.0262x elapsed=0:00:40.53    \nframe=   55 fps=1.3 q=51.0 size=       1KiB time=00:00:01.08 bitrate=   4.2kbits/s speed=0.0263x elapsed=0:00:41.07    \nframe=   55 fps=1.3 q=51.0 size=       1KiB time=00:00:01.08 bitrate=   4.2kbits/s speed=0.026x elapsed=0:00:41.59    \nframe=   56 fps=1.3 q=53.0 size=       1KiB time=00:00:01.10 bitrate=   4.1kbits/s speed=0.0261x elapsed=0:00:42.15    \nframe=   59 fps=1.4 q=53.0 size=       1KiB time=00:00:01.14 bitrate=   3.9kbits/s speed=0.0267x elapsed=0:00:42.67    \nframe=   59 fps=1.4 q=53.0 size=       1KiB time=00:00:01.16 bitrate=   3.9kbits/s speed=0.0269x elapsed=0:00:43.19    \nframe=   60 fps=1.4 q=53.0 size=       1KiB time=00:00:01.18 bitrate=   3.8kbits/s speed=0.0269x elapsed=0:00:43.79    \nframe=   62 fps=1.4 q=53.0 size=       1KiB time=00:00:01.20 bitrate=   3.7kbits/s speed=0.0271x elapsed=0:00:44.36    \nframe=   63 fps=1.4 q=52.0 size=       1KiB time=00:00:01.24 bitrate=   3.6kbits/s speed=0.0276x elapsed=0:00:44.90    \nframe=   63 fps=1.4 q=52.0 size=       1KiB time=00:00:01.24 bitrate=   3.6kbits/s speed=0.0273x elapsed=0:00:45.46    \nframe=   64 fps=1.4 q=54.0 size=       1KiB time=00:00:01.26 bitrate=   3.6kbits/s speed=0.0274x elapsed=0:00:46.03    \nframe=   66 fps=1.4 q=55.0 size=       1KiB time=00:00:01.30 bitrate=   3.5kbits/s speed=0.0279x elapsed=0:00:46.59    \nframe=   67 fps=1.4 q=54.0 size=       1KiB time=00:00:01.32 bitrate=   3.4kbits/s speed=0.028x elapsed=0:00:47.13    \nframe=   67 fps=1.4 q=54.0 size=       1KiB time=00:00:01.32 bitrate=   3.4kbits/s speed=0.0277x elapsed=0:00:47.67    \nframe=   68 fps=1.4 q=51.0 size=       1KiB time=00:00:01.34 bitrate=   3.4kbits/s speed=0.0278x elapsed=0:00:48.22    \nframe=   69 fps=1.4 q=51.0 size=       1KiB time=00:00:01.36 bitrate=   3.3kbits/s speed=0.0279x elapsed=0:00:48.80    \nframe=   70 fps=1.4 q=54.0 size=       1KiB time=00:00:01.38 bitrate=   3.3kbits/s speed=0.028x elapsed=0:00:49.34    \nframe=   70 fps=1.4 q=54.0 size=       1KiB time=00:00:01.38 bitrate=   3.3kbits/s speed=0.0276x elapsed=0:00:49.91    \nframe=   71 fps=1.4 q=51.0 size=       1KiB time=00:00:01.40 bitrate=   3.2kbits/s speed=0.0277x elapsed=0:00:50.46    \nframe=   71 fps=1.4 q=51.0 size=       1KiB time=00:00:01.40 bitrate=   3.2kbits/s speed=0.0274x elapsed=0:00:51.02    \nframe=   71 fps=1.4 q=51.0 size=       1KiB time=00:00:01.40 bitrate=   3.2kbits/s speed=0.0271x elapsed=0:00:51.62    \nframe=   73 fps=1.4 q=46.0 size=       1KiB time=00:00:01.44 bitrate=   3.1kbits/s speed=0.0276x elapsed=0:00:52.16    \nframe=   75 fps=1.4 q=53.0 size=       1KiB time=00:00:01.48 bitrate=   3.0kbits/s speed=0.0281x elapsed=0:00:52.70    \nframe=   76 fps=1.4 q=55.0 size=       1KiB time=00:00:01.50 bitrate=   3.0kbits/s speed=0.0282x elapsed=0:00:53.26    \nframe=   77 fps=1.4 q=50.0 size=       1KiB time=00:00:01.50 bitrate=   3.0kbits/s speed=0.0279x elapsed=0:00:53.79    \nframe=   79 fps=1.5 q=52.0 size=       1KiB time=00:00:01.56 bitrate=   2.9kbits/s speed=0.0287x elapsed=0:00:54.33    \nframe=   79 fps=1.4 q=52.0 size=       1KiB time=00:00:01.56 bitrate=   2.9kbits/s speed=0.0284x elapsed=0:00:54.88    \nframe=   81 fps=1.5 q=35.0 size=       1KiB time=00:00:01.60 bitrate=   2.8kbits/s speed=0.0289x elapsed=0:00:55.41    \nframe=   83 fps=1.5 q=54.0 size=       1KiB time=00:00:01.64 bitrate=   2.7kbits/s speed=0.0293x elapsed=0:00:55.95    \nframe=   83 fps=1.5 q=54.0 size=       1KiB time=00:00:01.64 bitrate=   2.7kbits/s speed=0.029x elapsed=0:00:56.46    \nframe=   84 fps=1.5 q=53.0 size=       1KiB time=00:00:01.66 bitrate=   2.7kbits/s speed=0.0291x elapsed=0:00:56.98    \nframe=   85 fps=1.5 q=52.0 size=       1KiB time=00:00:01.68 bitrate=   2.7kbits/s speed=0.0292x elapsed=0:00:57.51    \nframe=   85 fps=1.5 q=52.0 size=       1KiB time=00:00:01.68 bitrate=   2.7kbits/s speed=0.0289x elapsed=0:00:58.03    \nframe=   86 fps=1.5 q=54.0 size=       1KiB time=00:00:01.70 bitrate=   2.6kbits/s speed=0.029x elapsed=0:00:58.56    \nframe=   86 fps=1.5 q=54.0 size=       1KiB time=00:00:01.70 bitrate=   2.6kbits/s speed=0.0288x elapsed=0:00:59.08    \nframe=   87 fps=1.5 q=51.0 size=       1KiB time=00:00:01.72 bitrate=   2.6kbits/s speed=0.0288x elapsed=0:00:59.63    \nframe=   87 fps=1.4 q=51.0 size=       1KiB time=00:00:01.72 bitrate=   2.6kbits/s speed=0.0286x elapsed=0:01:00.16    \nframe=   88 fps=1.4 q=54.0 size=       1KiB time=00:00:01.74 bitrate=   2.6kbits/s speed=0.0287x elapsed=0:01:00.71    \nframe=   88 fps=1.4 q=54.0 size=       1KiB time=00:00:01.74 bitrate=   2.6kbits/s speed=0.0284x elapsed=0:01:01.24    \nframe=   90 fps=1.5 q=55.0 size=       1KiB time=00:00:01.78 bitrate=   2.5kbits/s speed=0.0288x elapsed=0:01:01.82    \nframe=   91 fps=1.5 q=53.0 size=       1KiB time=00:00:01.80 bitrate=   2.5kbits/s speed=0.0289x elapsed=0:01:02.37    \nframe=   91 fps=1.4 q=53.0 size=       1KiB time=00:00:01.80 bitrate=   2.5kbits/s speed=0.0286x elapsed=0:01:02.94    \nframe=   92 fps=1.4 q=55.0 size=       1KiB time=00:00:01.82 bitrate=   2.5kbits/s speed=0.0287x elapsed=0:01:03.51    \nframe=   93 fps=1.5 q=50.0 size=       1KiB time=00:00:01.84 bitrate=   2.4kbits/s speed=0.0287x elapsed=0:01:04.07    \nframe=   95 fps=1.5 q=53.0 size=       1KiB time=00:00:01.86 bitrate=   2.4kbits/s speed=0.0288x elapsed=0:01:04.61    \nframe=   96 fps=1.5 q=55.0 size=       1KiB time=00:00:01.88 bitrate=   2.4kbits/s speed=0.0289x elapsed=0:01:05.14    \nframe=   97 fps=1.5 q=35.0 size=       1KiB time=00:00:01.92 bitrate=   2.3kbits/s speed=0.0292x elapsed=0:01:05.69    \nframe=   99 fps=1.5 q=55.0 size=       1KiB time=00:00:01.96 bitrate=   2.3kbits/s speed=0.0296x elapsed=0:01:06.24    \nframe=   99 fps=1.5 q=55.0 size=       1KiB time=00:00:01.96 bitrate=   2.3kbits/s speed=0.0294x elapsed=0:01:06.76    \nframe=  100 fps=1.5 q=56.0 size=       1KiB time=00:00:01.98 bitrate=   2.3kbits/s speed=0.0294x elapsed=0:01:07.29    \nframe=  101 fps=1.5 q=53.0 size=       1KiB time=00:00:02.00 bitrate=   2.2kbits/s speed=0.0295x elapsed=0:01:07.82    \nframe=  102 fps=1.5 q=54.0 size=       1KiB time=00:00:02.02 bitrate=   2.2kbits/s speed=0.0295x elapsed=0:01:08.37    \nframe=  102 fps=1.5 q=54.0 size=       1KiB time=00:00:02.02 bitrate=   2.2kbits/s speed=0.0293x elapsed=0:01:08.89    \nframe=  103 fps=1.5 q=51.0 size=       1KiB time=00:00:02.04 bitrate=   2.2kbits/s speed=0.0294x elapsed=0:01:09.46    \nframe=  103 fps=1.5 q=51.0 size=       1KiB time=00:00:02.04 bitrate=   2.2kbits/s speed=0.0291x elapsed=0:01:09.99    \nframe=  104 fps=1.5 q=54.0 size=       1KiB time=00:00:02.06 bitrate=   2.2kbits/s speed=0.0292x elapsed=0:01:10.50    \nframe=  106 fps=1.5 q=56.0 size=       1KiB time=00:00:02.10 bitrate=   2.1kbits/s speed=0.0296x elapsed=0:01:11.03    \nframe=  107 fps=1.5 q=54.0 size=       1KiB time=00:00:02.12 bitrate=   2.1kbits/s speed=0.0296x elapsed=0:01:11.58    \nframe=  108 fps=1.5 q=53.0 size=       1KiB time=00:00:02.14 bitrate=   2.1kbits/s speed=0.0297x elapsed=0:01:12.13    \nframe=  109 fps=1.5 q=50.0 size=       1KiB time=00:00:02.16 bitrate=   2.1kbits/s speed=0.0297x elapsed=0:01:12.72    \nframe=  110 fps=1.5 q=55.0 size=       1KiB time=00:00:02.18 bitrate=   2.1kbits/s speed=0.0297x elapsed=0:01:13.28    \nframe=  111 fps=1.5 q=53.0 size=       1KiB time=00:00:02.20 bitrate=   2.0kbits/s speed=0.0298x elapsed=0:01:13.79    \nframe=  113 fps=1.5 q=37.0 size=       1KiB time=00:00:02.24 bitrate=   2.0kbits/s speed=0.0301x elapsed=0:01:14.34    \nframe=  114 fps=1.5 q=56.0 size=       1KiB time=00:00:02.26 bitrate=   2.0kbits/s speed=0.0302x elapsed=0:01:14.89    \nframe=  115 fps=1.5 q=55.0 size=       1KiB time=00:00:02.28 bitrate=   2.0kbits/s speed=0.0302x elapsed=0:01:15.42    \nframe=  115 fps=1.5 q=55.0 size=       1KiB time=00:00:02.28 bitrate=   2.0kbits/s speed=0.03x elapsed=0:01:15.93    \nframe=  116 fps=1.5 q=56.0 size=       1KiB time=00:00:02.30 bitrate=   2.0kbits/s speed=0.0301x elapsed=0:01:16.46    \nframe=  118 fps=1.5 q=55.0 size=       1KiB time=00:00:02.34 bitrate=   1.9kbits/s speed=0.0304x elapsed=0:01:16.98    \nframe=  118 fps=1.5 q=55.0 size=       1KiB time=00:00:02.34 bitrate=   1.9kbits/s speed=0.0302x elapsed=0:01:17.50    \nframe=  119 fps=1.5 q=52.0 size=       1KiB time=00:00:02.36 bitrate=   1.9kbits/s speed=0.0302x elapsed=0:01:18.02    \nframe=  119 fps=1.5 q=52.0 size=       1KiB time=00:00:02.36 bitrate=   1.9kbits/s speed=0.03x elapsed=0:01:18.58    \nframe=  120 fps=1.5 q=55.0 size=       1KiB time=00:00:02.36 bitrate=   1.9kbits/s speed=0.0298x elapsed=0:01:19.11    \nframe=  122 fps=1.5 q=56.0 size=       1KiB time=00:00:02.42 bitrate=   1.9kbits/s speed=0.0304x elapsed=0:01:19.67    \nframe=  123 fps=1.5 q=54.0 size=       1KiB time=00:00:02.44 bitrate=   1.8kbits/s speed=0.0304x elapsed=0:01:20.19    \nframe=  124 fps=1.5 q=56.0 size=       1KiB time=00:00:02.46 bitrate=   1.8kbits/s speed=0.0305x elapsed=0:01:20.71    \nframe=  127 fps=1.6 q=54.0 size=       1KiB time=00:00:02.52 bitrate=   1.8kbits/s speed=0.031x elapsed=0:01:21.24    \nframe=  127 fps=1.6 q=54.0 size=       1KiB time=00:00:02.52 bitrate=   1.8kbits/s speed=0.0308x elapsed=0:01:21.78    \nframe=  129 fps=1.6 q=38.0 size=       1KiB time=00:00:02.56 bitrate=   1.8kbits/s speed=0.0311x elapsed=0:01:22.30    \nframe=  130 fps=1.6 q=58.0 size=       1KiB time=00:00:02.58 bitrate=   1.7kbits/s speed=0.0311x elapsed=0:01:22.83    \nframe=  131 fps=1.6 q=56.0 size=       1KiB time=00:00:02.60 bitrate=   1.7kbits/s speed=0.0312x elapsed=0:01:23.36    \nframe=  133 fps=1.6 q=54.0 size=       1KiB time=00:00:02.64 bitrate=   1.7kbits/s speed=0.0315x elapsed=0:01:23.88    \nframe=  134 fps=1.6 q=58.0 size=       1KiB time=00:00:02.66 bitrate=   1.7kbits/s speed=0.0315x elapsed=0:01:24.39    \nframe=  134 fps=1.6 q=58.0 size=       1KiB time=00:00:02.66 bitrate=   1.7kbits/s speed=0.0313x elapsed=0:01:24.92    \nframe=  135 fps=1.6 q=56.0 size=       1KiB time=00:00:02.68 bitrate=   1.7kbits/s speed=0.0314x elapsed=0:01:25.44    \nframe=  135 fps=1.6 q=56.0 size=       1KiB time=00:00:02.68 bitrate=   1.7kbits/s speed=0.0312x elapsed=0:01:25.97    \nframe=  137 fps=1.6 q=50.0 size=       1KiB time=00:00:02.72 bitrate=   1.7kbits/s speed=0.0314x elapsed=0:01:26.52    \nframe=  139 fps=1.6 q=55.0 size=       1KiB time=00:00:02.76 bitrate=   1.6kbits/s speed=0.0317x elapsed=0:01:27.06    \nframe=  139 fps=1.6 q=55.0 size=       1KiB time=00:00:02.76 bitrate=   1.6kbits/s speed=0.0315x elapsed=0:01:27.59    \nframe=  141 fps=1.6 q=51.0 size=       1KiB time=00:00:02.80 bitrate=   1.6kbits/s speed=0.0318x elapsed=0:01:28.12    \nframe=  142 fps=1.6 q=59.0 size=       1KiB time=00:00:02.82 bitrate=   1.6kbits/s speed=0.0318x elapsed=0:01:28.65    \nframe=  143 fps=1.6 q=55.0 size=       1KiB time=00:00:02.84 bitrate=   1.6kbits/s speed=0.0319x elapsed=0:01:29.16    \nframe=  145 fps=1.6 q=39.0 size=       1KiB time=00:00:02.88 bitrate=   1.6kbits/s speed=0.0321x elapsed=0:01:29.71    \nframe=  147 fps=1.6 q=57.0 size=       1KiB time=00:00:02.92 bitrate=   1.5kbits/s speed=0.0324x elapsed=0:01:30.23    \nframe=  149 fps=1.6 q=55.0 size=       1KiB time=00:00:02.96 bitrate=   1.5kbits/s speed=0.0326x elapsed=0:01:30.76    \nframe=  150 fps=1.6 q=59.0 size=       1KiB time=00:00:02.98 bitrate=   1.5kbits/s speed=0.0326x elapsed=0:01:31.29    \nframe=  150 fps=1.6 q=59.0 size=       1KiB time=00:00:02.98 bitrate=   1.5kbits/s speed=0.0324x elapsed=0:01:31.84    \nframe=  151 fps=1.6 q=57.0 size=       1KiB time=00:00:03.00 bitrate=   1.5kbits/s speed=0.0325x elapsed=0:01:32.38    \nframe=  151 fps=1.6 q=57.0 size=       1KiB time=00:00:03.00 bitrate=   1.5kbits/s speed=0.0323x elapsed=0:01:32.94    \nframe=  153 fps=1.6 q=50.0 size=       1KiB time=00:00:03.04 bitrate=   1.5kbits/s speed=0.0325x elapsed=0:01:33.48    \nframe=  155 fps=1.6 q=56.0 size=       1KiB time=00:00:03.08 bitrate=   1.5kbits/s speed=0.0328x elapsed=0:01:34.03    \nframe=  156 fps=1.6 q=59.0 size=       1KiB time=00:00:03.10 bitrate=   1.5kbits/s speed=0.0328x elapsed=0:01:34.54    \nframe=  157 fps=1.7 q=52.0 size=       1KiB time=00:00:03.12 bitrate=   1.4kbits/s speed=0.0328x elapsed=0:01:35.14    \nframe=  159 fps=1.7 q=55.0 size=       1KiB time=00:00:03.16 bitrate=   1.4kbits/s speed=0.033x elapsed=0:01:35.70    \nframe=  159 fps=1.7 q=55.0 size=       1KiB time=00:00:03.16 bitrate=   1.4kbits/s speed=0.0328x elapsed=0:01:36.29    \nframe=  161 fps=1.7 q=38.0 size=       1KiB time=00:00:03.18 bitrate=   1.4kbits/s speed=0.0328x elapsed=0:01:36.86    \nframe=  162 fps=1.7 q=58.0 size=       1KiB time=00:00:03.22 bitrate=   1.4kbits/s speed=0.033x elapsed=0:01:37.44    \nframe=  163 fps=1.7 q=57.0 size=       1KiB time=00:00:03.24 bitrate=   1.4kbits/s speed=0.0331x elapsed=0:01:38.01    \nframe=  164 fps=1.7 q=58.0 size=       1KiB time=00:00:03.26 bitrate=   1.4kbits/s speed=0.0331x elapsed=0:01:38.56    \nframe=  166 fps=1.7 q=58.0 size=       1KiB time=00:00:03.30 bitrate=   1.4kbits/s speed=0.0333x elapsed=0:01:39.09    \nframe=  167 fps=1.7 q=57.0 size=       1KiB time=00:00:03.32 bitrate=   1.4kbits/s speed=0.0333x elapsed=0:01:39.62    \nframe=  167 fps=1.7 q=57.0 size=       1KiB time=00:00:03.32 bitrate=   1.4kbits/s speed=0.0332x elapsed=0:01:40.14    \nframe=  168 fps=1.7 q=58.0 size=       1KiB time=00:00:03.34 bitrate=   1.3kbits/s speed=0.0332x elapsed=0:01:40.66    \nframe=  170 fps=1.7 q=58.0 size=       1KiB time=00:00:03.38 bitrate=   1.3kbits/s speed=0.0334x elapsed=0:01:41.22    \nframe=  171 fps=1.7 q=57.0 size=       1KiB time=00:00:03.40 bitrate=   1.3kbits/s speed=0.0334x elapsed=0:01:41.73    \nframe=  172 fps=1.7 q=57.0 size=       1KiB time=00:00:03.42 bitrate=   1.3kbits/s speed=0.0334x elapsed=0:01:42.26    \nframe=  173 fps=1.7 q=55.0 size=       1KiB time=00:00:03.44 bitrate=   1.3kbits/s speed=0.0335x elapsed=0:01:42.78    \nframe=  175 fps=1.7 q=54.0 size=       1KiB time=00:00:03.48 bitrate=   1.3kbits/s speed=0.0337x elapsed=0:01:43.32    \nframe=  176 fps=1.7 q=57.0 size=       1KiB time=00:00:03.50 bitrate=   1.3kbits/s speed=0.0337x elapsed=0:01:43.84    \nframe=  177 fps=1.7 q=40.0 size=       1KiB time=00:00:03.52 bitrate=   1.3kbits/s speed=0.0337x elapsed=0:01:44.40    \nframe=  179 fps=1.7 q=56.0 size=       1KiB time=00:00:03.56 bitrate=   1.3kbits/s speed=0.0339x elapsed=0:01:44.96    \nframe=  179 fps=1.7 q=56.0 size=       1KiB time=00:00:03.56 bitrate=   1.3kbits/s speed=0.0337x elapsed=0:01:45.54    \nframe=  180 fps=1.7 q=57.0 size=       1KiB time=00:00:03.58 bitrate=   1.3kbits/s speed=0.0337x elapsed=0:01:46.16    \nframe=  181 fps=1.7 q=54.0 size=       1KiB time=00:00:03.60 bitrate=   1.2kbits/s speed=0.0337x elapsed=0:01:46.69    \nframe=  182 fps=1.7 q=57.0 size=       1KiB time=00:00:03.62 bitrate=   1.2kbits/s speed=0.0338x elapsed=0:01:47.22    \nframe=  182 fps=1.7 q=57.0 size=       1KiB time=00:00:03.62 bitrate=   1.2kbits/s speed=0.0336x elapsed=0:01:47.76    \nframe=  183 fps=1.7 q=52.0 size=       1KiB time=00:00:03.64 bitrate=   1.2kbits/s speed=0.0336x elapsed=0:01:48.28    \nframe=  183 fps=1.7 q=52.0 size=       1KiB time=00:00:03.64 bitrate=   1.2kbits/s speed=0.0334x elapsed=0:01:48.82    \nframe=  184 fps=1.7 q=56.0 size=       1KiB time=00:00:03.66 bitrate=   1.2kbits/s speed=0.0334x elapsed=0:01:49.43    \nframe=  186 fps=1.7 q=57.0 size=       1KiB time=00:00:03.70 bitrate=   1.2kbits/s speed=0.0336x elapsed=0:01:49.97    \nframe=  187 fps=1.7 q=54.0 size=       1KiB time=00:00:03.72 bitrate=   1.2kbits/s speed=0.0337x elapsed=0:01:50.49    \nframe=  189 fps=1.7 q=51.0 size=       1KiB time=00:00:03.76 bitrate=   1.2kbits/s speed=0.0339x elapsed=0:01:51.01    \nframe=  191 fps=1.7 q=54.0 size=       1KiB time=00:00:03.80 bitrate=   1.2kbits/s speed=0.0341x elapsed=0:01:51.59    \nframe=  193 fps=1.7 q=39.0 size=       1KiB time=00:00:03.84 bitrate=   1.2kbits/s speed=0.0342x elapsed=0:01:52.14    \nframe=  194 fps=1.7 q=57.0 size=       1KiB time=00:00:03.86 bitrate=   1.2kbits/s speed=0.0343x elapsed=0:01:52.67    \nframe=  196 fps=1.7 q=57.0 size=       1KiB time=00:00:03.90 bitrate=   1.2kbits/s speed=0.0345x elapsed=0:01:53.18    \nframe=  198 fps=1.7 q=57.0 size=       1KiB time=00:00:03.94 bitrate=   1.1kbits/s speed=0.0346x elapsed=0:01:53.71    \nframe=  199 fps=1.7 q=56.0 size=       1KiB time=00:00:03.96 bitrate=   1.1kbits/s speed=0.0347x elapsed=0:01:54.25    \nframe=  199 fps=1.7 q=56.0 size=       1KiB time=00:00:03.96 bitrate=   1.1kbits/s speed=0.0345x elapsed=0:01:54.81    \nframe=  201 fps=1.7 q=50.0 size=       1KiB time=00:00:04.00 bitrate=   1.1kbits/s speed=0.0347x elapsed=0:01:55.34    \nframe=  202 fps=1.7 q=57.0 size=       1KiB time=00:00:04.02 bitrate=   1.1kbits/s speed=0.0347x elapsed=0:01:55.85    \nframe=  203 fps=1.7 q=56.0 size=       1KiB time=00:00:04.04 bitrate=   1.1kbits/s speed=0.0347x elapsed=0:01:56.39    \nframe=  204 fps=1.7 q=53.0 size=       1KiB time=00:00:04.06 bitrate=   1.1kbits/s speed=0.0347x elapsed=0:01:56.90    \nframe=  205 fps=1.7 q=54.0 size=       1KiB time=00:00:04.08 bitrate=   1.1kbits/s speed=0.0347x elapsed=0:01:57.42    \nframe=  207 fps=1.8 q=53.0 size=       1KiB time=00:00:04.12 bitrate=   1.1kbits/s speed=0.0349x elapsed=0:01:57.98    \nframe=  207 fps=1.7 q=53.0 size=       1KiB time=00:00:04.12 bitrate=   1.1kbits/s speed=0.0347x elapsed=0:01:58.59    \nframe=  208 fps=1.7 q=55.0 size=       1KiB time=00:00:04.14 bitrate=   1.1kbits/s speed=0.0347x elapsed=0:01:59.19    \nframe=  210 fps=1.8 q=56.0 size=       1KiB time=00:00:04.16 bitrate=   1.1kbits/s speed=0.0347x elapsed=0:01:59.73    \nframe=  211 fps=1.8 q=55.0 size=       1KiB time=00:00:04.20 bitrate=   1.1kbits/s speed=0.0349x elapsed=0:02:00.34    \nframe=  213 fps=1.8 q=53.0 size=       1KiB time=00:00:04.22 bitrate=   1.1kbits/s speed=0.0349x elapsed=0:02:00.89    \nframe=  214 fps=1.8 q=56.0 size=       1KiB time=00:00:04.26 bitrate=   1.1kbits/s speed=0.0351x elapsed=0:02:01.49    \nframe=  214 fps=1.8 q=56.0 size=       1KiB time=00:00:04.26 bitrate=   1.1kbits/s speed=0.0349x elapsed=0:02:02.11    \nframe=  215 fps=1.8 q=55.0 size=       1KiB time=00:00:04.28 bitrate=   1.1kbits/s speed=0.0349x elapsed=0:02:02.66    \nframe=  215 fps=1.7 q=55.0 size=       1KiB time=00:00:04.28 bitrate=   1.1kbits/s speed=0.0347x elapsed=0:02:03.30    \nframe=  217 fps=1.8 q=49.0 size=       1KiB time=00:00:04.32 bitrate=   1.0kbits/s speed=0.0349x elapsed=0:02:03.84    \nframe=  219 fps=1.8 q=53.0 size=       1KiB time=00:00:04.34 bitrate=   1.0kbits/s speed=0.0349x elapsed=0:02:04.45    \nframe=  219 fps=1.8 q=53.0 size=       1KiB time=00:00:04.36 bitrate=   1.0kbits/s speed=0.0349x elapsed=0:02:05.08    \nframe=  221 fps=1.8 q=50.0 size=       1KiB time=00:00:04.40 bitrate=   1.0kbits/s speed=0.035x elapsed=0:02:05.59    \nframe=  225 fps=1.8 q=36.0 size=       1KiB time=00:00:04.46 bitrate=   1.0kbits/s speed=0.0353x elapsed=0:02:06.20    \nframe=  226 fps=1.8 q=56.0 size=       1KiB time=00:00:04.50 bitrate=   1.0kbits/s speed=0.0354x elapsed=0:02:07.05    \nframe=  227 fps=1.8 q=55.0 size=       1KiB time=00:00:04.52 bitrate=   1.0kbits/s speed=0.0354x elapsed=0:02:07.56    \nframe=  229 fps=1.8 q=53.0 size=       1KiB time=00:00:04.56 bitrate=   1.0kbits/s speed=0.0356x elapsed=0:02:08.08    \nframe=  230 fps=1.8 q=56.0 size=       1KiB time=00:00:04.58 bitrate=   1.0kbits/s speed=0.0356x elapsed=0:02:08.60    \nframe=  230 fps=1.8 q=56.0 size=       1KiB time=00:00:04.58 bitrate=   1.0kbits/s speed=0.0355x elapsed=0:02:09.11    \nframe=  231 fps=1.8 q=55.0 size=       1KiB time=00:00:04.60 bitrate=   1.0kbits/s speed=0.0355x elapsed=0:02:09.62    \nframe=  231 fps=1.8 q=55.0 size=       1KiB time=00:00:04.60 bitrate=   1.0kbits/s speed=0.0353x elapsed=0:02:10.14    \nframe=  232 fps=1.8 q=56.0 size=       1KiB time=00:00:04.62 bitrate=   1.0kbits/s speed=0.0354x elapsed=0:02:10.66    \nframe=  234 fps=1.8 q=56.0 size=       1KiB time=00:00:04.66 bitrate=   1.0kbits/s speed=0.0355x elapsed=0:02:11.18    \nframe=  235 fps=1.8 q=53.0 size=       1KiB time=00:00:04.68 bitrate=   1.0kbits/s speed=0.0355x elapsed=0:02:11.68    \nframe=  236 fps=1.8 q=56.0 size=       1KiB time=00:00:04.70 bitrate=   1.0kbits/s speed=0.0355x elapsed=0:02:12.21    \nframe=  237 fps=1.8 q=50.0 size=       1KiB time=00:00:04.72 bitrate=   1.0kbits/s speed=0.0356x elapsed=0:02:12.72    \nframe=  239 fps=1.8 q=53.0 size=       1KiB time=00:00:04.76 bitrate=   0.9kbits/s speed=0.0357x elapsed=0:02:13.23    \nframe=  241 fps=1.8 q=37.0 size=       1KiB time=00:00:04.80 bitrate=   0.9kbits/s speed=0.0359x elapsed=0:02:13.75    \nframe=  242 fps=1.8 q=57.0 size=       1KiB time=00:00:04.82 bitrate=   0.9kbits/s speed=0.0359x elapsed=0:02:14.27    \nframe=  244 fps=1.8 q=57.0 size=       1KiB time=00:00:04.86 bitrate=   0.9kbits/s speed=0.0361x elapsed=0:02:14.78    \nframe=  246 fps=1.8 q=57.0 size=       1KiB time=00:00:04.90 bitrate=   0.9kbits/s speed=0.0362x elapsed=0:02:15.30    \nframe=  246 fps=1.8 q=57.0 size=       1KiB time=00:00:04.90 bitrate=   0.9kbits/s speed=0.0361x elapsed=0:02:15.82    \nframe=  247 fps=1.8 q=55.0 size=       1KiB time=00:00:04.92 bitrate=   0.9kbits/s speed=0.0361x elapsed=0:02:16.34    \nframe=  248 fps=1.8 q=57.0 size=       1KiB time=00:00:04.94 bitrate=   0.9kbits/s speed=0.0361x elapsed=0:02:16.86    \nframe=  251 fps=1.8 q=54.0 size=       1KiB time=00:00:05.00 bitrate=   0.9kbits/s speed=0.0364x elapsed=0:02:17.37    \nframe=  252 fps=1.8 q=58.0 size=       1KiB time=00:00:05.02 bitrate=   0.9kbits/s speed=0.0364x elapsed=0:02:17.89    \nframe=  254 fps=1.8 q=58.0 size=     768KiB time=00:00:05.06 bitrate=1243.4kbits/s speed=0.0366x elapsed=0:02:18.40    \nframe=  256 fps=1.8 q=58.0 size=     768KiB time=00:00:05.10 bitrate=1233.6kbits/s speed=0.0367x elapsed=0:02:18.93    \nframe=  259 fps=1.9 q=56.0 size=     768KiB time=00:00:05.16 bitrate=1219.3kbits/s speed=0.037x elapsed=0:02:19.45    \nframe=  260 fps=1.9 q=58.0 size=     768KiB time=00:00:05.18 bitrate=1214.6kbits/s speed=0.037x elapsed=0:02:19.96    \nframe=  262 fps=1.9 q=58.0 size=     768KiB time=00:00:05.22 bitrate=1205.3kbits/s speed=0.0372x elapsed=0:02:20.47    \nframe=  263 fps=1.9 q=56.0 size=     768KiB time=00:00:05.24 bitrate=1200.7kbits/s speed=0.0372x elapsed=0:02:20.99    \nframe=  264 fps=1.9 q=58.0 size=     768KiB time=00:00:05.26 bitrate=1196.1kbits/s speed=0.0372x elapsed=0:02:21.51    \nframe=  265 fps=1.9 q=49.0 size=     768KiB time=00:00:05.28 bitrate=1191.6kbits/s speed=0.0372x elapsed=0:02:22.02    \nframe=  267 fps=1.9 q=55.0 size=     768KiB time=00:00:05.32 bitrate=1182.6kbits/s speed=0.0373x elapsed=0:02:22.54    \nframe=  268 fps=1.9 q=58.0 size=     768KiB time=00:00:05.34 bitrate=1178.2kbits/s speed=0.0373x elapsed=0:02:23.05    \nframe=  268 fps=1.9 q=58.0 size=     768KiB time=00:00:05.34 bitrate=1178.2kbits/s speed=0.0372x elapsed=0:02:23.56    \nframe=  270 fps=1.9 q=58.0 size=     768KiB time=00:00:05.38 bitrate=1169.4kbits/s speed=0.0373x elapsed=0:02:24.07    \nframe=  271 fps=1.9 q=54.0 size=     768KiB time=00:00:05.40 bitrate=1165.1kbits/s speed=0.0373x elapsed=0:02:24.60    \nframe=  272 fps=1.9 q=58.0 size=     768KiB time=00:00:05.42 bitrate=1160.8kbits/s speed=0.0374x elapsed=0:02:25.11    \nframe=  273 fps=1.9 q=36.0 size=     768KiB time=00:00:05.44 bitrate=1156.5kbits/s speed=0.0374x elapsed=0:02:25.62    \nframe=  274 fps=1.9 q=58.0 size=     768KiB time=00:00:05.46 bitrate=1152.3kbits/s speed=0.0374x elapsed=0:02:26.14    \nframe=  275 fps=1.9 q=56.0 size=     768KiB time=00:00:05.48 bitrate=1148.1kbits/s speed=0.0374x elapsed=0:02:26.65    \nframe=  278 fps=1.9 q=58.0 size=     768KiB time=00:00:05.54 bitrate=1135.6kbits/s speed=0.0376x elapsed=0:02:27.18    \nframe=  278 fps=1.9 q=58.0 size=     768KiB time=00:00:05.54 bitrate=1135.6kbits/s speed=0.0375x elapsed=0:02:27.70    \nframe=  279 fps=1.9 q=56.0 size=     768KiB time=00:00:05.56 bitrate=1131.6kbits/s speed=0.0375x elapsed=0:02:28.21    \nframe=  281 fps=1.9 q=50.0 size=     768KiB time=00:00:05.60 bitrate=1123.5kbits/s speed=0.0377x elapsed=0:02:28.73    \nframe=  283 fps=1.9 q=55.0 size=     768KiB time=00:00:05.64 bitrate=1115.5kbits/s speed=0.0378x elapsed=0:02:29.23    \nframe=  284 fps=1.9 q=58.0 size=     768KiB time=00:00:05.66 bitrate=1111.6kbits/s speed=0.0378x elapsed=0:02:29.75    \nframe=  285 fps=1.9 q=51.0 size=     768KiB time=00:00:05.68 bitrate=1107.7kbits/s speed=0.0378x elapsed=0:02:30.26    \nframe=  286 fps=1.9 q=59.0 size=     768KiB time=00:00:05.70 bitrate=1103.8kbits/s speed=0.0378x elapsed=0:02:30.78    \nframe=  287 fps=1.9 q=55.0 size=     768KiB time=00:00:05.72 bitrate=1099.9kbits/s speed=0.0378x elapsed=0:02:31.29    \nframe=  289 fps=1.9 q=39.0 size=     768KiB time=00:00:05.76 bitrate=1092.3kbits/s speed=0.0379x elapsed=0:02:31.82    \nframe=  290 fps=1.9 q=57.0 size=     768KiB time=00:00:05.78 bitrate=1088.5kbits/s speed=0.0379x elapsed=0:02:32.33    \nframe=  291 fps=1.9 q=56.0 size=     768KiB time=00:00:05.80 bitrate=1084.7kbits/s speed=0.0379x elapsed=0:02:32.84    \nframe=  291 fps=1.9 q=56.0 size=     768KiB time=00:00:05.80 bitrate=1084.7kbits/s speed=0.0378x elapsed=0:02:33.36    \nframe=  293 fps=1.9 q=55.0 size=     768KiB time=00:00:05.84 bitrate=1077.3kbits/s speed=0.0379x elapsed=0:02:33.88    \nframe=  294 fps=1.9 q=57.0 size=     768KiB time=00:00:05.86 bitrate=1073.6kbits/s speed=0.038x elapsed=0:02:34.40    \nframe=  295 fps=1.9 q=53.0 size=     768KiB time=00:00:05.88 bitrate=1070.0kbits/s speed=0.038x elapsed=0:02:34.91    \nframe=  296 fps=1.9 q=57.0 size=     768KiB time=00:00:05.90 bitrate=1066.3kbits/s speed=0.038x elapsed=0:02:35.42    \nframe=  296 fps=1.9 q=57.0 size=     768KiB time=00:00:05.90 bitrate=1066.3kbits/s speed=0.0378x elapsed=0:02:35.94    \nframe=  297 fps=1.9 q=50.0 size=     768KiB time=00:00:05.92 bitrate=1062.7kbits/s speed=0.0378x elapsed=0:02:36.45    \nframe=  298 fps=1.9 q=56.0 size=     768KiB time=00:00:05.94 bitrate=1059.2kbits/s speed=0.0378x elapsed=0:02:36.97    \nframe=  301 fps=1.9 q=52.0 size=     768KiB time=00:00:06.00 bitrate=1048.6kbits/s speed=0.0381x elapsed=0:02:37.49    \nframe=  301 fps=1.9 q=52.0 size=     768KiB time=00:00:06.00 bitrate=1048.6kbits/s speed=0.038x elapsed=0:02:38.00    \nframe=  303 fps=1.9 q=55.0 size=     768KiB time=00:00:06.04 bitrate=1041.6kbits/s speed=0.0381x elapsed=0:02:38.52    \nframe=  305 fps=1.9 q=38.0 size=     768KiB time=00:00:06.06 bitrate=1038.2kbits/s speed=0.0381x elapsed=0:02:39.03    \nframe=  305 fps=1.9 q=38.0 size=     768KiB time=00:00:06.08 bitrate=1034.8kbits/s speed=0.0381x elapsed=0:02:39.59    \nframe=  305 fps=1.9 q=38.0 size=     768KiB time=00:00:06.08 bitrate=1034.8kbits/s speed=0.038x elapsed=0:02:40.11    \nframe=  306 fps=1.9 q=55.0 size=     768KiB time=00:00:06.10 bitrate=1031.4kbits/s speed=0.038x elapsed=0:02:40.65    \nframe=  308 fps=1.9 q=54.0 size=     768KiB time=00:00:06.14 bitrate=1024.7kbits/s speed=0.0381x elapsed=0:02:41.22    \nframe=  309 fps=1.9 q=51.0 size=     768KiB time=00:00:06.16 bitrate=1021.3kbits/s speed=0.0381x elapsed=0:02:41.76    \nframe=  309 fps=1.9 q=51.0 size=     768KiB time=00:00:06.16 bitrate=1021.3kbits/s speed=0.0379x elapsed=0:02:42.33    \nframe=  310 fps=1.9 q=55.0 size=     768KiB time=00:00:06.18 bitrate=1018.0kbits/s speed=0.0379x elapsed=0:02:42.87    \nframe=  311 fps=1.9 q=54.0 size=     768KiB time=00:00:06.20 bitrate=1014.8kbits/s speed=0.0379x elapsed=0:02:43.39    \nframe=  312 fps=1.9 q=55.0 size=     768KiB time=00:00:06.22 bitrate=1011.5kbits/s speed=0.0379x elapsed=0:02:43.90    \nframe=  313 fps=1.9 q=48.0 size=     768KiB time=00:00:06.24 bitrate=1008.2kbits/s speed=0.0379x elapsed=0:02:44.43    \nframe=  313 fps=1.9 q=48.0 size=     768KiB time=00:00:06.24 bitrate=1008.2kbits/s speed=0.0378x elapsed=0:02:44.97    \nframe=  313 fps=1.9 q=48.0 size=     768KiB time=00:00:06.24 bitrate=1008.2kbits/s speed=0.0377x elapsed=0:02:45.49    \nframe=  313 fps=1.9 q=48.0 size=     768KiB time=00:00:06.24 bitrate=1008.2kbits/s speed=0.0376x elapsed=0:02:46.00    \nframe=  313 fps=1.9 q=48.0 size=     768KiB time=00:00:06.24 bitrate=1008.2kbits/s speed=0.0375x elapsed=0:02:46.57    \nframe=  315 fps=1.9 q=52.0 size=     768KiB time=00:00:06.28 bitrate=1001.8kbits/s speed=0.0376x elapsed=0:02:47.10    \nframe=  317 fps=1.9 q=48.0 size=     768KiB time=00:00:06.32 bitrate= 995.5kbits/s speed=0.0377x elapsed=0:02:47.63    \nframe=  317 fps=1.9 q=48.0 size=     768KiB time=00:00:06.32 bitrate= 995.5kbits/s speed=0.0376x elapsed=0:02:48.22    \nframe=  317 fps=1.9 q=48.0 size=     768KiB time=00:00:06.32 bitrate= 995.5kbits/s speed=0.0375x elapsed=0:02:48.75    \nframe=  318 fps=1.9 q=53.0 size=     768KiB time=00:00:06.34 bitrate= 992.3kbits/s speed=0.0375x elapsed=0:02:49.27    \nframe=  320 fps=1.9 q=53.0 size=     768KiB time=00:00:06.38 bitrate= 986.1kbits/s speed=0.0376x elapsed=0:02:49.80    \nframe=  322 fps=1.9 q=36.0 size=     768KiB time=00:00:06.42 bitrate= 980.0kbits/s speed=0.0377x elapsed=0:02:50.32    \nframe=  323 fps=1.9 q=55.0 size=    1024KiB time=00:00:06.44 bitrate=1302.6kbits/s speed=0.0377x elapsed=0:02:50.83    \nframe=  323 fps=1.9 q=55.0 size=    1024KiB time=00:00:06.44 bitrate=1302.6kbits/s speed=0.0376x elapsed=0:02:51.39    \nframe=  326 fps=1.9 q=52.0 size=    1024KiB time=00:00:06.50 bitrate=1290.6kbits/s speed=0.0378x elapsed=0:02:51.95    \nframe=  326 fps=1.9 q=52.0 size=    1024KiB time=00:00:06.50 bitrate=1290.6kbits/s speed=0.0377x elapsed=0:02:52.47    \nframe=  327 fps=1.9 q=55.0 size=    1024KiB time=00:00:06.52 bitrate=1286.6kbits/s speed=0.0377x elapsed=0:02:52.98    \nframe=  328 fps=1.9 q=54.0 size=    1024KiB time=00:00:06.54 bitrate=1282.7kbits/s speed=0.0377x elapsed=0:02:53.50    \nframe=  329 fps=1.9 q=55.0 size=    1024KiB time=00:00:06.54 bitrate=1282.7kbits/s speed=0.0376x elapsed=0:02:54.04    \nframe=  331 fps=1.9 q=54.0 size=    1024KiB time=00:00:06.60 bitrate=1271.0kbits/s speed=0.0378x elapsed=0:02:54.57    \nframe=  331 fps=1.9 q=54.0 size=    1024KiB time=00:00:06.60 bitrate=1271.0kbits/s speed=0.0377x elapsed=0:02:55.08    \nframe=  333 fps=1.9 q=54.0 size=    1024KiB time=00:00:06.64 bitrate=1263.3kbits/s speed=0.0378x elapsed=0:02:55.62    \nframe=  335 fps=1.9 q=53.0 size=    1024KiB time=00:00:06.68 bitrate=1255.8kbits/s speed=0.0379x elapsed=0:02:56.15    \nframe=  335 fps=1.9 q=53.0 size=    1024KiB time=00:00:06.68 bitrate=1255.8kbits/s speed=0.0378x elapsed=0:02:56.67    \nframe=  337 fps=1.9 q=53.0 size=    1024KiB time=00:00:06.72 bitrate=1248.3kbits/s speed=0.0379x elapsed=0:02:57.20    \nframe=  338 fps=1.9 q=39.0 size=    1024KiB time=00:00:06.74 bitrate=1244.6kbits/s speed=0.0379x elapsed=0:02:57.76    \nframe=  338 fps=1.9 q=39.0 size=    1024KiB time=00:00:06.74 bitrate=1244.6kbits/s speed=0.0378x elapsed=0:02:58.31    \nframe=  339 fps=1.9 q=54.0 size=    1024KiB time=00:00:06.76 bitrate=1240.9kbits/s speed=0.0378x elapsed=0:02:58.85    \nframe=  342 fps=1.9 q=51.0 size=    1024KiB time=00:00:06.82 bitrate=1230.0kbits/s speed=0.038x elapsed=0:02:59.41    \nframe=  342 fps=1.9 q=51.0 size=    1024KiB time=00:00:06.82 bitrate=1230.0kbits/s speed=0.0379x elapsed=0:02:59.94    \nframe=  342 fps=1.9 q=51.0 size=    1024KiB time=00:00:06.82 bitrate=1230.0kbits/s speed=0.0378x elapsed=0:03:00.47    \nframe=  343 fps=1.9 q=54.0 size=    1024KiB time=00:00:06.84 bitrate=1226.4kbits/s speed=0.0378x elapsed=0:03:01.00    \nframe=  344 fps=1.9 q=53.0 size=    1024KiB time=00:00:06.84 bitrate=1226.4kbits/s speed=0.0377x elapsed=0:03:01.53    \nframe=  344 fps=1.9 q=53.0 size=    1024KiB time=00:00:06.86 bitrate=1222.8kbits/s speed=0.0377x elapsed=0:03:02.11    \nframe=  345 fps=1.9 q=54.0 size=    1024KiB time=00:00:06.88 bitrate=1219.3kbits/s speed=0.0376x elapsed=0:03:02.74    \nframe=  347 fps=1.9 q=54.0 size=    1024KiB time=00:00:06.92 bitrate=1212.2kbits/s speed=0.0377x elapsed=0:03:03.32    \nframe=  348 fps=1.9 q=52.0 size=    1024KiB time=00:00:06.94 bitrate=1208.7kbits/s speed=0.0377x elapsed=0:03:03.90    \nframe=  349 fps=1.9 q=54.0 size=    1024KiB time=00:00:06.96 bitrate=1205.3kbits/s speed=0.0377x elapsed=0:03:04.40    \nframe=  350 fps=1.9 q=49.0 size=    1024KiB time=00:00:06.98 bitrate=1201.8kbits/s speed=0.0377x elapsed=0:03:04.96    \nframe=  351 fps=1.9 q=54.0 size=    1024KiB time=00:00:07.00 bitrate=1198.4kbits/s speed=0.0377x elapsed=0:03:05.51    \nframe=  352 fps=1.9 q=52.0 size=    1024KiB time=00:00:07.02 bitrate=1195.0kbits/s speed=0.0377x elapsed=0:03:06.10    \nframe=  353 fps=1.9 q=54.0 size=    1024KiB time=00:00:07.04 bitrate=1191.6kbits/s speed=0.0377x elapsed=0:03:06.65    \nframe=  354 fps=1.9 q=35.0 size=    1024KiB time=00:00:07.06 bitrate=1188.2kbits/s speed=0.0377x elapsed=0:03:07.17    \nframe=  356 fps=1.9 q=54.0 size=    1024KiB time=00:00:07.10 bitrate=1181.5kbits/s speed=0.0378x elapsed=0:03:07.69    \nframe=  358 fps=1.9 q=52.0 size=    1024KiB time=00:00:07.12 bitrate=1178.2kbits/s speed=0.0378x elapsed=0:03:08.20    \nframe=  359 fps=1.9 q=55.0 size=    1024KiB time=00:00:07.16 bitrate=1171.6kbits/s speed=0.0379x elapsed=0:03:08.78    \nframe=  359 fps=1.9 q=55.0 size=    1024KiB time=00:00:07.16 bitrate=1171.6kbits/s speed=0.0378x elapsed=0:03:09.33    \nframe=  361 fps=1.9 q=55.0 size=    1024KiB time=00:00:07.18 bitrate=1168.3kbits/s speed=0.0378x elapsed=0:03:09.97    \nframe=  362 fps=1.9 q=47.0 size=    1024KiB time=00:00:07.22 bitrate=1161.9kbits/s speed=0.0379x elapsed=0:03:10.59    \nframe=  363 fps=1.9 q=55.0 size=    1024KiB time=00:00:07.24 bitrate=1158.6kbits/s speed=0.0379x elapsed=0:03:11.11    \nframe=  365 fps=1.9 q=55.0 size=    1024KiB time=00:00:07.28 bitrate=1152.3kbits/s speed=0.038x elapsed=0:03:11.67    \nframe=  367 fps=1.9 q=55.0 size=    1024KiB time=00:00:07.32 bitrate=1146.0kbits/s speed=0.0381x elapsed=0:03:12.19    \nframe=  368 fps=1.9 q=53.0 size=    1024KiB time=00:00:07.34 bitrate=1142.9kbits/s speed=0.0381x elapsed=0:03:12.71    \nframe=  369 fps=1.9 q=55.0 size=    1024KiB time=00:00:07.36 bitrate=1139.8kbits/s speed=0.0381x elapsed=0:03:13.23    \nframe=  370 fps=1.9 q=34.0 size=    1024KiB time=00:00:07.38 bitrate=1136.7kbits/s speed=0.0381x elapsed=0:03:13.77    \nframe=  371 fps=1.9 q=55.0 size=    1024KiB time=00:00:07.40 bitrate=1133.6kbits/s speed=0.0381x elapsed=0:03:14.29    \nframe=  373 fps=1.9 q=55.0 size=    1024KiB time=00:00:07.44 bitrate=1127.5kbits/s speed=0.0382x elapsed=0:03:14.82    \nframe=  373 fps=1.9 q=55.0 size=    1024KiB time=00:00:07.44 bitrate=1127.5kbits/s speed=0.0381x elapsed=0:03:15.37    \nframe=  373 fps=1.9 q=55.0 size=    1024KiB time=00:00:07.44 bitrate=1127.5kbits/s speed=0.038x elapsed=0:03:15.90    \nframe=  375 fps=1.9 q=55.0 size=    1024KiB time=00:00:07.48 bitrate=1121.5kbits/s speed=0.0381x elapsed=0:03:16.43    \nframe=  376 fps=1.9 q=54.0 size=    1024KiB time=00:00:07.50 bitrate=1118.5kbits/s speed=0.0381x elapsed=0:03:16.97    \nframe=  376 fps=1.9 q=54.0 size=    1024KiB time=00:00:07.50 bitrate=1118.5kbits/s speed=0.038x elapsed=0:03:17.48    \nframe=  379 fps=1.9 q=55.0 size=    1024KiB time=00:00:07.56 bitrate=1109.6kbits/s speed=0.0382x elapsed=0:03:18.00    \nframe=  379 fps=1.9 q=55.0 size=    1024KiB time=00:00:07.56 bitrate=1109.6kbits/s speed=0.0381x elapsed=0:03:18.54    \nframe=  381 fps=1.9 q=55.0 size=    1024KiB time=00:00:07.60 bitrate=1103.8kbits/s speed=0.0382x elapsed=0:03:19.05    \nframe=  382 fps=1.9 q=51.0 size=    1024KiB time=00:00:07.62 bitrate=1100.9kbits/s speed=0.0382x elapsed=0:03:19.56    \nframe=  383 fps=1.9 q=56.0 size=    1024KiB time=00:00:07.64 bitrate=1098.0kbits/s speed=0.0382x elapsed=0:03:20.10    \nframe=  384 fps=1.9 q=54.0 size=    1024KiB time=00:00:07.64 bitrate=1098.0kbits/s speed=0.038x elapsed=0:03:20.82    \nframe=  385 fps=1.9 q=56.0 size=    1024KiB time=00:00:07.68 bitrate=1092.3kbits/s speed=0.0381x elapsed=0:03:21.40    \nframe=  406 fps=2.0 q=52.0 size=    1024KiB time=00:00:08.10 bitrate=1035.6kbits/s speed=0.0401x elapsed=0:03:21.97    \nframe=  406 fps=2.0 q=52.0 size=    1024KiB time=00:00:08.10 bitrate=1035.6kbits/s speed=0.04x elapsed=0:03:22.51    \nframe=  408 fps=2.0 q=55.0 size=    1024KiB time=00:00:08.14 bitrate=1030.5kbits/s speed=0.0401x elapsed=0:03:23.05    \nframe=  410 fps=2.0 q=47.0 size=    1024KiB time=00:00:08.18 bitrate=1025.5kbits/s speed=0.0402x elapsed=0:03:23.57    \nframe=  410 fps=2.0 q=47.0 size=    1024KiB time=00:00:08.18 bitrate=1025.5kbits/s speed=0.0401x elapsed=0:03:24.09    \nframe=  410 fps=2.0 q=47.0 size=    1024KiB time=00:00:08.18 bitrate=1025.5kbits/s speed=0.04x elapsed=0:03:24.64    \nframe=  410 fps=2.0 q=47.0 size=    1024KiB time=00:00:08.18 bitrate=1025.5kbits/s speed=0.0399x elapsed=0:03:25.19    \nframe=  410 fps=2.0 q=47.0 size=    1024KiB time=00:00:08.18 bitrate=1025.5kbits/s speed=0.0398x elapsed=0:03:25.72    \nframe=  412 fps=2.0 q=54.0 size=    1024KiB time=00:00:08.22 bitrate=1020.5kbits/s speed=0.0398x elapsed=0:03:26.27    \nframe=  414 fps=2.0 q=51.0 size=    1024KiB time=00:00:08.26 bitrate=1015.6kbits/s speed=0.0399x elapsed=0:03:26.85    \nframe=  414 fps=2.0 q=51.0 size=    1024KiB time=00:00:08.26 bitrate=1015.6kbits/s speed=0.0398x elapsed=0:03:27.39    \nframe=  414 fps=2.0 q=51.0 size=    1024KiB time=00:00:08.26 bitrate=1015.6kbits/s speed=0.0397x elapsed=0:03:27.92    \nframe=  418 fps=2.0 q=37.0 size=    1024KiB time=00:00:08.30 bitrate=1010.7kbits/s speed=0.0398x elapsed=0:03:28.50    \nframe=  418 fps=2.0 q=37.0 size=    1024KiB time=00:00:08.34 bitrate=1005.8kbits/s speed=0.0399x elapsed=0:03:29.15    \nframe=  418 fps=2.0 q=37.0 size=    1024KiB time=00:00:08.34 bitrate=1005.8kbits/s speed=0.0398x elapsed=0:03:29.65    \nframe=  422 fps=2.0 q=53.0 size=    1024KiB time=00:00:08.42 bitrate= 996.3kbits/s speed=0.04x elapsed=0:03:30.29    \nframe=  422 fps=2.0 q=53.0 size=    1024KiB time=00:00:08.42 bitrate= 996.3kbits/s speed=0.0399x elapsed=0:03:31.21    \nframe=  424 fps=2.0 q=55.0 size=    1024KiB time=00:00:08.46 bitrate= 991.6kbits/s speed=0.0399x elapsed=0:03:32.14    \nframe=  426 fps=2.0 q=48.0 size=    1024KiB time=00:00:08.50 bitrate= 986.9kbits/s speed=0.0399x elapsed=0:03:33.08    \nframe=  426 fps=2.0 q=48.0 size=    1024KiB time=00:00:08.50 bitrate= 986.9kbits/s speed=0.0397x elapsed=0:03:33.98    \nframe=  426 fps=2.0 q=48.0 size=    1024KiB time=00:00:08.50 bitrate= 986.9kbits/s speed=0.0396x elapsed=0:03:34.89    \nframe=  430 fps=2.0 q=53.0 size=    1024KiB time=00:00:08.54 bitrate= 982.3kbits/s speed=0.0396x elapsed=0:03:35.76    \nframe=  430 fps=2.0 q=53.0 size=    1024KiB time=00:00:08.58 bitrate= 977.7kbits/s speed=0.0396x elapsed=0:03:36.90    \nframe=  434 fps=2.0 q=39.0 size=    1024KiB time=00:00:08.66 bitrate= 968.7kbits/s speed=0.0397x elapsed=0:03:37.87    \nframe=  434 fps=2.0 q=39.0 size=    1024KiB time=00:00:08.66 bitrate= 968.7kbits/s speed=0.0396x elapsed=0:03:38.72    \nframe=  438 fps=2.0 q=52.0 size=    1024KiB time=00:00:08.70 bitrate= 964.2kbits/s speed=0.0396x elapsed=0:03:39.66    \nframe=  438 fps=2.0 q=52.0 size=    1024KiB time=00:00:08.74 bitrate= 959.8kbits/s speed=0.0396x elapsed=0:03:40.71    \nframe=  440 fps=2.0 q=54.0 size=    1024KiB time=00:00:08.74 bitrate= 959.8kbits/s speed=0.0394x elapsed=0:03:41.66    \nframe=  442 fps=2.0 q=48.0 size=    1024KiB time=00:00:08.82 bitrate= 951.1kbits/s speed=0.0396x elapsed=0:03:42.72    \nframe=  442 fps=2.0 q=48.0 size=    1024KiB time=00:00:08.82 bitrate= 951.1kbits/s speed=0.0394x elapsed=0:03:43.63    \nframe=  442 fps=2.0 q=48.0 size=    1024KiB time=00:00:08.82 bitrate= 951.1kbits/s speed=0.0393x elapsed=0:03:44.33    \nframe=  442 fps=2.0 q=48.0 size=    1024KiB time=00:00:08.82 bitrate= 951.1kbits/s speed=0.0392x elapsed=0:03:44.85    \nframe=  442 fps=2.0 q=48.0 size=    1024KiB time=00:00:08.82 bitrate= 951.1kbits/s speed=0.0391x elapsed=0:03:45.36    \nframe=  446 fps=2.0 q=49.0 size=    1024KiB time=00:00:08.90 bitrate= 942.5kbits/s speed=0.0394x elapsed=0:03:45.89    \nframe=  446 fps=2.0 q=49.0 size=    1024KiB time=00:00:08.90 bitrate= 942.5kbits/s speed=0.0393x elapsed=0:03:46.42    \nframe=  448 fps=2.0 q=52.0 size=    1024KiB time=00:00:08.90 bitrate= 942.5kbits/s speed=0.0392x elapsed=0:03:47.05    \nframe=  450 fps=2.0 q=38.0 size=    1024KiB time=00:00:08.98 bitrate= 934.1kbits/s speed=0.0394x elapsed=0:03:47.68    \nframe=  450 fps=2.0 q=38.0 size=    1024KiB time=00:00:08.98 bitrate= 934.1kbits/s speed=0.0393x elapsed=0:03:48.34    \nframe=  450 fps=2.0 q=38.0 size=    1024KiB time=00:00:08.98 bitrate= 934.1kbits/s speed=0.0392x elapsed=0:03:48.88    \nframe=  454 fps=2.0 q=52.0 size=    1024KiB time=00:00:09.06 bitrate= 925.9kbits/s speed=0.0395x elapsed=0:03:49.42    \nframe=  454 fps=2.0 q=52.0 size=    1024KiB time=00:00:09.06 bitrate= 925.9kbits/s speed=0.0394x elapsed=0:03:49.98    \nframe=  456 fps=2.0 q=54.0 size=    1024KiB time=00:00:09.10 bitrate= 921.8kbits/s speed=0.0394x elapsed=0:03:50.68    \nframe=  458 fps=2.0 q=48.0 size=    1024KiB time=00:00:09.14 bitrate= 917.8kbits/s speed=0.0395x elapsed=0:03:51.22    \nframe=  458 fps=2.0 q=48.0 size=    1024KiB time=00:00:09.14 bitrate= 917.8kbits/s speed=0.0394x elapsed=0:03:51.82    \nframe=  458 fps=2.0 q=48.0 size=    1024KiB time=00:00:09.14 bitrate= 917.8kbits/s speed=0.0393x elapsed=0:03:52.33    \nframe=  460 fps=2.0 q=53.0 size=    1024KiB time=00:00:09.18 bitrate= 913.8kbits/s speed=0.0394x elapsed=0:03:52.92    \nframe=  462 fps=2.0 q=49.0 size=    1024KiB time=00:00:09.22 bitrate= 909.8kbits/s speed=0.0395x elapsed=0:03:53.46    \nframe=  462 fps=2.0 q=49.0 size=    1024KiB time=00:00:09.22 bitrate= 909.8kbits/s speed=0.0394x elapsed=0:03:54.02    \nframe=  466 fps=2.0 q=35.0 size=    1024KiB time=00:00:09.30 bitrate= 902.0kbits/s speed=0.0396x elapsed=0:03:54.55    \nframe=  466 fps=2.0 q=35.0 size=    1024KiB time=00:00:09.30 bitrate= 902.0kbits/s speed=0.0396x elapsed=0:03:55.11    \nframe=  470 fps=2.0 q=52.0 size=    1024KiB time=00:00:09.34 bitrate= 898.1kbits/s speed=0.0396x elapsed=0:03:55.63    \nframe=  470 fps=2.0 q=52.0 size=    1024KiB time=00:00:09.38 bitrate= 894.3kbits/s speed=0.0397x elapsed=0:03:56.17    \nframe=  470 fps=2.0 q=52.0 size=    1024KiB time=00:00:09.38 bitrate= 894.3kbits/s speed=0.0396x elapsed=0:03:56.71    \nframe=  472 fps=2.0 q=54.0 size=    1024KiB time=00:00:09.42 bitrate= 890.5kbits/s speed=0.0397x elapsed=0:03:57.25    \nframe=  474 fps=2.0 q=48.0 size=    1024KiB time=00:00:09.46 bitrate= 886.7kbits/s speed=0.0398x elapsed=0:03:57.78    \nframe=  474 fps=2.0 q=48.0 size=    1024KiB time=00:00:09.46 bitrate= 886.7kbits/s speed=0.0397x elapsed=0:03:58.31    \nframe=  474 fps=2.0 q=48.0 size=    1024KiB time=00:00:09.46 bitrate= 886.7kbits/s speed=0.0396x elapsed=0:03:58.89    \nframe=  474 fps=2.0 q=48.0 size=    1024KiB time=00:00:09.46 bitrate= 886.7kbits/s speed=0.0395x elapsed=0:03:59.43    \nframe=  474 fps=2.0 q=48.0 size=    1024KiB time=00:00:09.46 bitrate= 886.7kbits/s speed=0.0394x elapsed=0:03:59.98    \nframe=  476 fps=2.0 q=53.0 size=    1024KiB time=00:00:09.50 bitrate= 883.0kbits/s speed=0.0395x elapsed=0:04:00.50    \nframe=  478 fps=2.0 q=50.0 size=    1024KiB time=00:00:09.54 bitrate= 879.3kbits/s speed=0.0396x elapsed=0:04:01.08    \nframe=  480 fps=2.0 q=56.0 size=    1024KiB time=00:00:09.58 bitrate= 875.6kbits/s speed=0.0396x elapsed=0:04:01.63    \nframe=  482 fps=2.0 q=36.0 size=    1024KiB time=00:00:09.62 bitrate= 872.0kbits/s speed=0.0397x elapsed=0:04:02.18    \nframe=  482 fps=2.0 q=36.0 size=    1024KiB time=00:00:09.62 bitrate= 872.0kbits/s speed=0.0396x elapsed=0:04:02.70    \nframe=  486 fps=2.0 q=56.0 size=    1024KiB time=00:00:09.70 bitrate= 864.8kbits/s speed=0.0399x elapsed=0:04:03.24    \nframe=  486 fps=2.0 q=56.0 size=    1024KiB time=00:00:09.70 bitrate= 864.8kbits/s speed=0.0398x elapsed=0:04:03.79    \nframe=  488 fps=2.0 q=56.0 size=    1024KiB time=00:00:09.74 bitrate= 861.3kbits/s speed=0.0399x elapsed=0:04:04.35    \nframe=  490 fps=2.0 q=54.0 size=    1024KiB time=00:00:09.78 bitrate= 857.7kbits/s speed=0.0399x elapsed=0:04:04.88    \nframe=  490 fps=2.0 q=54.0 size=    1024KiB time=00:00:09.78 bitrate= 857.7kbits/s speed=0.0398x elapsed=0:04:05.42    \nframe=  494 fps=2.0 q=56.0 size=    1024KiB time=00:00:09.86 bitrate= 850.8kbits/s speed=0.0401x elapsed=0:04:05.94    \nframe=  496 fps=2.0 q=56.0 size=    1024KiB time=00:00:09.90 bitrate= 847.3kbits/s speed=0.0402x elapsed=0:04:06.48    \n[out#0/matroska @ 000001c0f71d9c40] video:1892KiB audio:0KiB subtitle:0KiB other streams:0KiB global headers:0KiB muxing overhead: 0.151869%\nframe=  500 fps=2.0 q=51.0 Lsize=    1895KiB time=00:00:09.98 bitrate=1555.7kbits/s speed=0.0405x elapsed=0:04:06.60    \n",
  "seconds": 247.75104403495789,
  "probe_out": {}
}